<?xml version="1.0" encoding="UTF-8" standalone="no"?>
<!DOCTYPE svg PUBLIC "-//W3C//DTD SVG 1.1//EN" "http://www.w3.org/Graphics/SVG/1.1/DTD/svg11.dtd">
<svg version="1.1" xmlns="http://www.w3.org/2000/svg" xmlns:xlink="http://www.w3.org/1999/xlink" preserveAspectRatio="xMidYMid meet" viewBox="0 0 640 640" width="640" height="640"><defs><path d="M317.42 30.68L318.53 30.83L319.63 31.02L320.73 31.25L321.82 31.52L322.9 31.83L323.97 32.19L325.03 32.59L326.07 33.03L327.1 33.52L328.12 34.05L329.11 34.62L330.09 35.23L331.05 35.89L331.99 36.59L332.91 37.33L333.8 38.11L334.67 38.94L579.47 281.88L580.31 282.74L581.1 283.63L581.85 284.54L582.55 285.47L583.21 286.42L583.84 287.4L584.41 288.39L584.95 289.4L585.44 290.43L585.89 291.47L586.3 292.52L586.67 293.59L586.99 294.67L587.27 295.76L587.51 296.85L587.71 297.95L587.86 299.06L587.97 300.17L588.04 301.29L588.07 302.4L588.05 303.52L587.99 304.63L587.89 305.74L587.74 306.85L587.55 307.96L587.32 309.05L587.05 310.14L586.74 311.22L586.38 312.29L585.98 313.35L585.54 314.39L585.05 315.42L584.52 316.44L583.95 317.44L583.34 318.42L582.68 319.38L581.98 320.31L581.24 321.23L580.46 322.12L579.63 322.99L534.03 368.94L534.03 564.06L534.02 564.91L533.96 565.74L533.88 566.57L533.76 567.38L533.62 568.19L533.44 568.98L533.23 569.77L532.99 570.54L532.72 571.29L532.42 572.03L532.1 572.76L531.75 573.47L531.37 574.17L530.96 574.85L530.53 575.51L530.08 576.16L529.6 576.79L529.1 577.39L528.58 577.98L528.03 578.55L527.47 579.09L526.88 579.61L526.27 580.12L525.65 580.59L525 581.05L524.34 581.48L523.66 581.88L522.96 582.26L522.25 582.61L521.52 582.94L520.78 583.23L520.02 583.5L519.25 583.74L518.47 583.95L517.68 584.13L516.87 584.28L516.05 584.39L515.23 584.48L514.39 584.53L513.55 584.55L114.52 584.55L113.67 584.53L112.84 584.48L112.01 584.39L111.19 584.28L110.39 584.13L109.59 583.95L108.81 583.74L108.04 583.5L107.29 583.23L106.54 582.94L105.82 582.61L105.1 582.26L104.41 581.88L103.73 581.48L103.06 581.05L102.42 580.59L101.79 580.12L101.19 579.61L100.6 579.09L100.03 578.55L99.49 577.98L98.96 577.39L98.46 576.79L97.99 576.16L97.53 575.51L97.1 574.85L96.7 574.17L96.32 573.47L95.97 572.76L95.64 572.03L95.35 571.29L95.08 570.54L94.84 569.77L94.63 568.98L94.45 568.19L94.3 567.38L94.18 566.57L94.1 565.74L94.05 564.91L94.03 564.06L94.03 372.31L48.59 327.21L47.76 326.35L46.97 325.47L46.22 324.55L45.51 323.62L44.85 322.67L44.23 321.69L43.65 320.7L43.12 319.69L42.62 318.66L42.17 317.62L41.76 316.57L41.4 315.5L41.07 314.42L40.79 313.33L40.55 312.24L40.36 311.14L40.2 310.03L40.09 308.92L40.03 307.81L40 306.69L40.02 305.57L40.08 304.46L40.18 303.35L40.32 302.24L40.51 301.14L40.74 300.04L41.01 298.95L41.33 297.87L41.69 296.8L42.09 295.74L42.53 294.7L43.02 293.67L43.54 292.65L44.11 291.65L44.73 290.68L45.38 289.72L46.08 288.78L46.82 287.86L47.61 286.97L48.44 286.1L293.56 39.1L294.42 38.26L295.3 37.47L296.21 36.72L297.15 36.02L298.1 35.36L299.08 34.73L300.07 34.16L301.08 33.62L302.11 33.13L303.15 32.67L304.2 32.27L305.27 31.9L306.35 31.58L307.43 31.3L308.53 31.06L309.63 30.86L310.74 30.71L311.85 30.6L312.96 30.53L314.08 30.5L315.19 30.52L316.31 30.58L316.31 30.58L317.42 30.68ZM303.34 328.97L300.92 329.87L298.5 331.03L296.08 332.45L293.66 334.12L291.23 336.05L288.8 338.24L286.38 340.69L283.94 343.4L281.51 346.36L279.08 349.58L276.64 353.05L274.2 356.79L271.76 360.78L269.32 365.03L266.87 369.54L264.43 374.3L261.98 379.33L259.29 385.07L256.74 390.65L254.32 396.04L252.04 401.27L249.9 406.32L247.89 411.19L246.02 415.89L244.28 420.42L242.68 424.77L241.21 428.95L239.89 432.95L238.69 436.78L237.63 440.44L236.71 443.92L235.93 447.22L235.28 450.36L234.76 453.32L234.39 456.1L234.14 458.71L234.04 461.15L234.07 463.41L234.23 465.49L234.53 467.41L234.97 469.15L235.55 470.71L236.25 472.1L237.1 473.32L238.08 474.36L239.2 475.22L240.45 475.92L241.84 476.44L243.36 476.78L245.02 476.95L246.82 476.95L248.75 476.77L250.82 476.42L253.02 475.89L255.36 475.19L257.83 474.32L260.45 473.27L264.4 471.64L268.21 470.16L271.9 468.82L275.47 467.62L278.92 466.55L282.25 465.61L285.48 464.79L288.6 464.09L291.63 463.5L294.56 463.02L297.4 462.63L300.15 462.34L302.83 462.15L305.44 462.03L307.97 462L310.44 462.04L312.85 462.15L315.2 462.33L317.51 462.56L319.77 462.85L321.99 463.19L324.17 463.56L326.33 463.98L328.45 464.43L330.56 464.91L332.65 465.4L334.73 465.92L336.81 466.45L338.88 466.98L340.96 467.51L343.05 468.04L345.15 468.56L347.26 469.07L349.41 469.55L351.58 470.01L353.78 470.44L356.02 470.84L358.3 471.19L360.63 471.5L363.02 471.75L365.39 471.99L367.67 472.23L369.87 472.46L371.98 472.68L373.99 472.88L375.91 473.03L377.73 473.14L379.44 473.19L381.04 473.18L382.53 473.08L383.91 472.89L385.17 472.6L386.31 472.19L387.32 471.67L388.2 471.01L388.95 470.2L389.57 469.24L390.05 468.11L390.38 466.81L390.57 465.31L390.61 463.62L390.5 461.72L390.23 459.6L389.8 457.24L389.21 454.65L388.45 451.8L387.52 448.69L386.42 445.3L385.14 441.63L383.68 437.66L382.04 433.39L380.21 428.79L378.19 423.87L375.98 418.61L373.56 413L370.95 407.03L368.13 400.69L365.11 393.97L361.87 386.85L358.42 379.33L356.05 374.3L353.67 369.54L351.3 365.03L348.92 360.78L346.53 356.79L344.15 353.05L341.77 349.58L339.38 346.36L336.99 343.4L334.6 340.69L332.21 338.24L329.81 336.05L327.41 334.12L325.01 332.45L322.61 331.03L320.21 329.87L317.81 328.97L315.4 328.33L312.99 327.94L310.58 327.81L308.17 327.94L305.76 328.33L305.76 328.33L303.34 328.97ZM409.29 275.87L407.99 276.18L406.7 276.59L405.42 277.07L404.15 277.64L402.88 278.29L401.63 279.02L400.39 279.83L399.16 280.72L397.95 281.68L396.75 282.71L395.57 283.82L394.41 285L393.27 286.24L392.15 287.56L391.05 288.93L389.98 290.37L388.93 291.88L387.91 293.44L386.92 295.06L385.95 296.74L385.02 298.47L384.12 300.26L383.25 302.1L382.41 303.98L381.61 305.92L380.85 307.9L380.12 309.93L379.44 312L378.79 314.12L378.19 316.27L377.63 318.46L377.11 320.69L376.64 322.95L376.22 325.25L375.85 327.58L375.53 329.91L375.26 332.23L375.05 334.54L374.89 336.82L374.79 339.08L374.73 341.31L374.74 343.52L374.79 345.7L374.89 347.86L375.04 349.98L375.24 352.06L375.49 354.11L375.78 356.12L376.12 358.1L376.51 360.03L376.94 361.91L377.42 363.75L377.94 365.55L378.51 367.29L379.11 368.98L379.76 370.62L380.45 372.2L381.17 373.72L381.94 375.19L382.75 376.59L383.59 377.93L384.47 379.2L385.38 380.41L386.33 381.55L387.32 382.61L388.34 383.6L389.39 384.52L390.48 385.36L391.59 386.12L392.74 386.8L393.92 387.39L395.13 387.9L396.36 388.32L397.63 388.65L398.92 388.89L400.22 389.04L401.53 389.09L402.84 389.05L404.14 388.91L405.44 388.69L406.73 388.38L408.02 387.98L409.31 387.49L410.58 386.92L411.85 386.27L413.1 385.54L414.34 384.73L415.57 383.84L416.78 382.88L417.98 381.85L419.16 380.74L420.32 379.56L421.46 378.32L422.58 377.01L423.68 375.63L424.75 374.19L425.8 372.68L426.82 371.12L427.81 369.5L428.78 367.82L429.71 366.09L430.61 364.3L431.48 362.46L432.32 360.58L433.12 358.64L433.88 356.66L434.61 354.63L435.29 352.56L435.94 350.44L436.54 348.29L437.1 346.1L437.62 343.87L438.09 341.61L438.51 339.31L438.88 336.98L439.2 334.65L439.47 332.33L439.68 330.02L439.84 327.74L439.94 325.48L439.99 323.25L439.99 321.04L439.94 318.86L439.84 316.7L439.69 314.58L439.49 312.5L439.24 310.45L438.95 308.44L438.6 306.47L438.22 304.54L437.78 302.65L437.31 300.81L436.79 299.02L436.22 297.27L435.62 295.58L434.97 293.94L434.28 292.36L433.55 290.84L432.79 289.37L431.98 287.97L431.14 286.63L430.26 285.36L429.35 284.15L428.39 283.01L427.41 281.95L426.39 280.96L425.34 280.04L424.25 279.2L423.13 278.44L421.99 277.77L420.81 277.17L419.6 276.66L418.36 276.24L417.1 275.91L415.81 275.67L414.5 275.52L413.2 275.47L411.89 275.51L410.59 275.65L410.59 275.65L409.29 275.87ZM208.3 272.5L207.03 272.82L205.79 273.22L204.58 273.71L203.4 274.29L202.26 274.95L201.15 275.7L200.08 276.52L199.04 277.42L198.05 278.39L197.09 279.44L196.16 280.56L195.28 281.75L194.43 283.01L193.63 284.33L192.87 285.72L192.14 287.16L191.46 288.67L190.82 290.23L190.23 291.85L189.68 293.53L189.17 295.25L188.71 297.02L188.29 298.84L187.92 300.71L187.6 302.61L187.32 304.56L187.1 306.55L186.92 308.58L186.79 310.64L186.71 312.73L186.68 314.86L186.7 317.01L186.78 319.19L186.9 321.4L187.08 323.63L187.32 325.88L187.61 328.15L187.95 330.43L188.35 332.73L188.81 335.05L189.31 337.35L189.87 339.62L190.47 341.85L191.11 344.04L191.8 346.2L192.52 348.31L193.29 350.39L194.09 352.42L194.93 354.4L195.81 356.34L196.72 358.22L197.66 360.06L198.64 361.84L199.64 363.58L200.67 365.25L201.73 366.87L202.82 368.43L203.93 369.93L205.06 371.37L206.22 372.75L207.39 374.06L208.58 375.31L209.79 376.49L211.02 377.59L212.26 378.63L213.52 379.6L214.78 380.49L216.06 381.3L217.35 382.04L218.64 382.69L219.94 383.27L221.24 383.76L222.55 384.18L223.86 384.5L225.18 384.74L226.49 384.89L227.8 384.95L229.1 384.91L230.4 384.79L231.7 384.57L232.97 384.25L234.21 383.85L235.42 383.35L236.6 382.78L237.74 382.11L238.85 381.37L239.92 380.55L240.96 379.65L241.95 378.67L242.91 377.63L243.84 376.51L244.72 375.32L245.57 374.06L246.37 372.74L247.13 371.35L247.86 369.9L248.54 368.4L249.18 366.83L249.77 365.22L250.32 363.54L250.83 361.82L251.29 360.05L251.71 358.23L252.08 356.36L252.4 354.45L252.68 352.5L252.9 350.52L253.08 348.49L253.21 346.43L253.29 344.34L253.32 342.21L253.3 340.06L253.22 337.88L253.1 335.67L252.92 333.44L252.68 331.19L252.39 328.92L252.05 326.64L251.65 324.34L251.19 322.02L250.69 319.72L250.13 317.45L249.53 315.22L248.89 313.02L248.2 310.87L247.48 308.75L246.71 306.68L245.91 304.65L245.07 302.67L244.19 300.73L243.28 298.85L242.34 297.01L241.36 295.22L240.36 293.49L239.33 291.82L238.27 290.2L237.18 288.64L236.07 287.13L234.94 285.69L233.78 284.32L232.61 283.01L231.42 281.76L230.21 280.58L228.98 279.47L227.74 278.44L226.48 277.47L225.22 276.58L223.94 275.77L222.65 275.03L221.36 274.38L220.06 273.8L218.76 273.3L217.45 272.89L216.14 272.57L214.82 272.33L213.51 272.18L212.2 272.12L210.9 272.16L209.6 272.28L209.6 272.28L208.3 272.5ZM274.56 180.4L273.27 180.71L271.98 181.12L270.69 181.6L269.42 182.17L268.15 182.82L266.9 183.55L265.66 184.36L264.43 185.25L263.22 186.21L262.02 187.24L260.84 188.35L259.68 189.53L258.54 190.77L257.42 192.09L256.32 193.46L255.25 194.9L254.2 196.41L253.18 197.97L252.19 199.59L251.22 201.27L250.29 203L249.39 204.79L248.52 206.63L247.68 208.51L246.88 210.45L246.12 212.43L245.39 214.46L244.71 216.53L244.06 218.65L243.46 220.8L242.9 222.99L242.38 225.22L241.91 227.48L241.49 229.78L241.12 232.11L240.8 234.44L240.53 236.76L240.32 239.07L240.16 241.35L240.06 243.61L240.01 245.84L240.01 248.05L240.06 250.23L240.16 252.39L240.31 254.51L240.51 256.59L240.76 258.64L241.05 260.65L241.4 262.63L241.78 264.56L242.22 266.44L242.69 268.28L243.21 270.08L243.78 271.82L244.38 273.51L245.03 275.15L245.72 276.73L246.45 278.25L247.21 279.72L248.02 281.12L248.86 282.46L249.74 283.73L250.65 284.94L251.61 286.08L252.59 287.14L253.61 288.13L254.66 289.05L255.75 289.89L256.87 290.65L258.01 291.33L259.19 291.92L260.4 292.43L261.64 292.85L262.9 293.18L264.19 293.42L265.5 293.57L266.8 293.62L268.11 293.58L269.41 293.44L270.71 293.22L272.01 292.91L273.3 292.51L274.58 292.02L275.85 291.45L277.12 290.8L278.37 290.07L279.61 289.26L280.84 288.37L282.05 287.41L283.25 286.38L284.43 285.27L285.59 284.09L286.73 282.85L287.85 281.54L288.95 280.16L290.02 278.72L291.07 277.21L292.09 275.65L293.08 274.03L294.05 272.35L294.98 270.62L295.88 268.83L296.75 266.99L297.59 265.11L298.39 263.17L299.15 261.19L299.88 259.16L300.56 257.09L301.21 254.97L301.81 252.82L302.37 250.63L302.89 248.4L303.36 246.14L303.78 243.84L304.15 241.51L304.47 239.18L304.74 236.86L304.95 234.55L305.11 232.27L305.21 230.01L305.27 227.78L305.26 225.57L305.21 223.39L305.11 221.23L304.96 219.11L304.76 217.03L304.51 214.98L304.22 212.97L303.88 211L303.49 209.07L303.06 207.18L302.58 205.34L302.06 203.55L301.49 201.8L300.89 200.11L300.24 198.47L299.55 196.89L298.83 195.37L298.06 193.9L297.25 192.5L296.41 191.16L295.53 189.89L294.62 188.68L293.67 187.54L292.68 186.48L291.66 185.49L290.61 184.57L289.52 183.73L288.41 182.97L287.26 182.3L286.08 181.7L284.87 181.19L283.64 180.77L282.37 180.44L281.08 180.2L279.78 180.05L278.47 180L277.16 180.04L275.86 180.18L275.86 180.18L274.56 180.4ZM341.62 176.65L340.35 176.96L339.11 177.37L337.9 177.86L336.72 178.44L335.58 179.1L334.47 179.84L333.4 180.66L332.37 181.56L331.37 182.54L330.41 183.59L329.48 184.71L328.6 185.9L327.76 187.15L326.95 188.48L326.19 189.86L325.46 191.31L324.78 192.81L324.15 194.38L323.55 196L323 197.67L322.49 199.39L322.03 201.17L321.61 202.98L321.24 204.85L320.92 206.76L320.64 208.71L320.42 210.7L320.24 212.72L320.11 214.78L320.03 216.88L320 219L320.02 221.16L320.1 223.34L320.22 225.54L320.4 227.77L320.64 230.02L320.93 232.29L321.27 234.58L321.67 236.88L322.13 239.19L322.63 241.49L323.19 243.76L323.79 245.99L324.43 248.19L325.12 250.34L325.84 252.46L326.61 254.53L327.41 256.56L328.25 258.54L329.13 260.48L330.04 262.37L330.98 264.2L331.96 265.99L332.96 267.72L334 269.4L335.05 271.01L336.14 272.58L337.25 274.08L338.38 275.52L339.54 276.89L340.71 278.21L341.9 279.45L343.11 280.63L344.34 281.74L345.58 282.77L346.84 283.74L348.1 284.63L349.38 285.44L350.67 286.18L351.96 286.84L353.26 287.41L354.57 287.91L355.87 288.32L357.18 288.64L358.5 288.88L359.81 289.03L361.12 289.09L362.42 289.06L363.72 288.93L365.02 288.71L366.29 288.39L367.54 287.99L368.75 287.5L369.92 286.92L371.06 286.26L372.17 285.52L373.24 284.69L374.28 283.79L375.27 282.82L376.23 281.77L377.16 280.65L378.04 279.46L378.89 278.2L379.69 276.88L380.45 275.49L381.18 274.05L381.86 272.54L382.5 270.98L383.09 269.36L383.64 267.69L384.15 265.96L384.61 264.19L385.03 262.37L385.4 260.51L385.72 258.6L386 256.65L386.23 254.66L386.4 252.63L386.53 250.57L386.61 248.48L386.64 246.35L386.62 244.2L386.54 242.02L386.42 239.81L386.24 237.58L386 235.33L385.71 233.07L385.37 230.78L384.97 228.48L384.51 226.17L384.01 223.86L383.45 221.59L382.85 219.36L382.21 217.17L381.52 215.01L380.8 212.9L380.03 210.82L379.23 208.8L378.39 206.81L377.51 204.88L376.6 202.99L375.66 201.15L374.68 199.37L373.68 197.64L372.65 195.96L371.59 194.34L370.5 192.78L369.39 191.28L368.26 189.84L367.1 188.46L365.93 187.15L364.74 185.9L363.53 184.73L362.3 183.62L361.06 182.58L359.8 181.62L358.54 180.73L357.26 179.91L355.97 179.18L354.68 178.52L353.38 177.94L352.08 177.45L350.77 177.04L349.46 176.71L348.15 176.47L346.83 176.32L345.53 176.27L344.22 176.3L342.92 176.42L342.92 176.42L341.62 176.65Z" id="ct1XrZyo7"></path></defs><g><g><g><use xlink:href="#ct1XrZyo7" opacity="1" fill="#4a4a4a" fill-opacity="1"></use></g></g></g></svg>